<mxfile host="Electron" modified="2024-10-03T06:27:34.085Z" agent="Mozilla/5.0 (Windows NT 10.0; Win64; x64) AppleWebKit/537.36 (KHTML, like Gecko) draw.io/22.1.2 Chrome/114.0.5735.289 Electron/25.9.4 Safari/537.36" etag="ZjxPyqYwm3WMCf3LODiO" version="22.1.2" type="device" pages="4">
  <diagram name="zone_region" id="EFcrC45SiaSFCaNC-zOW">
    <mxGraphModel dx="780" dy="496" grid="1" gridSize="10" guides="1" tooltips="1" connect="1" arrows="1" fold="1" page="1" pageScale="1" pageWidth="827" pageHeight="1169" math="0" shadow="0">
      <root>
        <mxCell id="0" />
        <mxCell id="1" parent="0" />
        <mxCell id="mF9iUp9sDzbTyn-Hj18g-1" value="" style="rounded=1;whiteSpace=wrap;html=1;fontFamily=VK Sans Display;strokeColor=none;arcsize=12;fillColor=#FFFFFF;spacing=0;spacingTop=12;spacingBottom=12;arcSize=12;absoluteArcSize=1;fontSize=14;fontColor=#212121;" parent="1" vertex="1">
          <mxGeometry x="39" y="40" width="750" height="470" as="geometry" />
        </mxCell>
        <mxCell id="mF9iUp9sDzbTyn-Hj18g-2" value="Зона доступности AZ1" style="rounded=1;whiteSpace=wrap;html=1;strokeColor=#7C8A9A;strokeWidth=1;fontColor=#212121;fillColor=none;dashed=1;fontFamily=VK Sans Display;verticalAlign=top;spacing=10;fontStyle=1;arcSize=12;absoluteArcSize=1;" parent="1" vertex="1">
          <mxGeometry x="48" y="100" width="231" height="400" as="geometry" />
        </mxCell>
        <mxCell id="mF9iUp9sDzbTyn-Hj18g-3" value="Агрегат узла AZ1" style="rounded=1;whiteSpace=wrap;html=1;fontFamily=VK Sans Display;strokeColor=none;arcSize=12;fillColor=#F6F7F9;spacing=10;verticalAlign=top;spacingTop=0;spacingLeft=0;spacingBottom=0;fontStyle=1;arcSize=12;absoluteArcSize=1;fontColor=#212121;" parent="1" vertex="1">
          <mxGeometry x="67" y="140" width="192" height="340" as="geometry" />
        </mxCell>
        <mxCell id="mF9iUp9sDzbTyn-Hj18g-4" value="Агрегат узла 1" style="rounded=1;whiteSpace=wrap;html=1;fontFamily=VK Sans Display;strokeColor=#E3E8F2;arcSize=12;fillColor=#FFF;spacing=12;verticalAlign=top;spacingTop=0;strokeWidth=4;spacingLeft=0;spacingBottom=0;fontStyle=1;absoluteArcSize=1;fontColor=#212121;" parent="1" vertex="1">
          <mxGeometry x="78.5" y="185" width="170" height="130" as="geometry" />
        </mxCell>
        <mxCell id="mF9iUp9sDzbTyn-Hj18g-5" value="" style="group;fontFamily=VK Sans Display;fontColor=#212121;" parent="1" vertex="1" connectable="0">
          <mxGeometry x="93.5" y="231" width="140" height="60" as="geometry" />
        </mxCell>
        <mxCell id="mF9iUp9sDzbTyn-Hj18g-6" value="&lt;font&gt;Node 1&lt;/font&gt;" style="rounded=1;whiteSpace=wrap;html=1;fontFamily=VK Sans Display;strokeColor=#7C8A9A;arcsize=12;fillColor=#F6F7F9;spacing=0;spacingTop=12;spacingBottom=12;arcSize=12;absoluteArcSize=1;strokeWidth=1;fontColor=#212121;" parent="mF9iUp9sDzbTyn-Hj18g-5" vertex="1">
          <mxGeometry width="120" height="40" as="geometry" />
        </mxCell>
        <mxCell id="mF9iUp9sDzbTyn-Hj18g-7" value="&lt;font&gt;Node 1&lt;/font&gt;" style="rounded=1;whiteSpace=wrap;html=1;fontFamily=VK Sans Display;strokeColor=#7C8A9A;arcsize=12;fillColor=#F6F7F9;spacing=0;spacingTop=12;spacingBottom=12;arcSize=12;absoluteArcSize=1;strokeWidth=1;fontColor=#212121;" parent="mF9iUp9sDzbTyn-Hj18g-5" vertex="1">
          <mxGeometry x="10" y="10" width="120" height="40" as="geometry" />
        </mxCell>
        <mxCell id="mF9iUp9sDzbTyn-Hj18g-8" value="&lt;font&gt;Вычислительный узел&lt;/font&gt;" style="rounded=1;whiteSpace=wrap;html=1;fontFamily=VK Sans Display;strokeColor=#7C8A9A;arcsize=12;fillColor=#F6F7F9;spacing=0;spacingTop=12;spacingBottom=12;arcSize=12;absoluteArcSize=1;strokeWidth=1;fontColor=#212121;" parent="mF9iUp9sDzbTyn-Hj18g-5" vertex="1">
          <mxGeometry x="20" y="20" width="120" height="40" as="geometry" />
        </mxCell>
        <mxCell id="mF9iUp9sDzbTyn-Hj18g-9" value="Агрегат узла 2" style="rounded=1;whiteSpace=wrap;html=1;fontFamily=VK Sans Display;strokeColor=#E3E8F2;arcSize=12;fillColor=#FFF;spacing=12;verticalAlign=top;spacingTop=0;strokeWidth=4;spacingLeft=0;spacingBottom=0;fontStyle=1;absoluteArcSize=1;fontColor=#212121;" parent="1" vertex="1">
          <mxGeometry x="78.5" y="330" width="170" height="130" as="geometry" />
        </mxCell>
        <mxCell id="mF9iUp9sDzbTyn-Hj18g-10" value="" style="group;fontFamily=VK Sans Display;fontColor=#212121;" parent="1" vertex="1" connectable="0">
          <mxGeometry x="93.5" y="376" width="140" height="60" as="geometry" />
        </mxCell>
        <mxCell id="mF9iUp9sDzbTyn-Hj18g-11" value="&lt;font&gt;Node 1&lt;/font&gt;" style="rounded=1;whiteSpace=wrap;html=1;fontFamily=VK Sans Display;strokeColor=#7C8A9A;arcsize=12;fillColor=#F6F7F9;spacing=0;spacingTop=12;spacingBottom=12;arcSize=12;absoluteArcSize=1;strokeWidth=1;fontColor=#212121;" parent="mF9iUp9sDzbTyn-Hj18g-10" vertex="1">
          <mxGeometry width="120" height="40" as="geometry" />
        </mxCell>
        <mxCell id="mF9iUp9sDzbTyn-Hj18g-12" value="&lt;font&gt;Node 1&lt;/font&gt;" style="rounded=1;whiteSpace=wrap;html=1;fontFamily=VK Sans Display;strokeColor=#7C8A9A;arcsize=12;fillColor=#F6F7F9;spacing=0;spacingTop=12;spacingBottom=12;arcSize=12;absoluteArcSize=1;strokeWidth=1;fontColor=#212121;" parent="mF9iUp9sDzbTyn-Hj18g-10" vertex="1">
          <mxGeometry x="10" y="10" width="120" height="40" as="geometry" />
        </mxCell>
        <mxCell id="mF9iUp9sDzbTyn-Hj18g-13" value="&lt;font&gt;Вычислительный узел&lt;/font&gt;" style="rounded=1;whiteSpace=wrap;html=1;fontFamily=VK Sans Display;strokeColor=#7C8A9A;arcsize=12;fillColor=#F6F7F9;spacing=0;spacingTop=12;spacingBottom=12;arcSize=12;absoluteArcSize=1;strokeWidth=1;fontColor=#212121;" parent="mF9iUp9sDzbTyn-Hj18g-10" vertex="1">
          <mxGeometry x="20" y="20" width="120" height="40" as="geometry" />
        </mxCell>
        <mxCell id="mF9iUp9sDzbTyn-Hj18g-14" value="Зона доступности AZ2" style="rounded=1;whiteSpace=wrap;html=1;strokeColor=#7C8A9A;strokeWidth=1;fontColor=#212121;fillColor=none;dashed=1;fontFamily=VK Sans Display;verticalAlign=top;spacing=10;fontStyle=1;arcSize=12;absoluteArcSize=1;" parent="1" vertex="1">
          <mxGeometry x="298" y="100" width="231" height="400" as="geometry" />
        </mxCell>
        <mxCell id="mF9iUp9sDzbTyn-Hj18g-15" value="Агрегат узла AZ2" style="rounded=1;whiteSpace=wrap;html=1;fontFamily=VK Sans Display;strokeColor=none;arcSize=12;fillColor=#F6F7F9;spacing=10;verticalAlign=top;spacingTop=0;spacingLeft=0;spacingBottom=0;fontStyle=1;arcSize=12;absoluteArcSize=1;fontColor=#212121;" parent="1" vertex="1">
          <mxGeometry x="317" y="140" width="192" height="340" as="geometry" />
        </mxCell>
        <mxCell id="mF9iUp9sDzbTyn-Hj18g-16" value="Агрегат узла 3" style="rounded=1;whiteSpace=wrap;html=1;fontFamily=VK Sans Display;strokeColor=#E3E8F2;arcSize=12;fillColor=#FFF;spacing=12;verticalAlign=top;spacingTop=0;strokeWidth=4;spacingLeft=0;spacingBottom=0;fontStyle=1;absoluteArcSize=1;fontColor=#212121;" parent="1" vertex="1">
          <mxGeometry x="328.5" y="185" width="170" height="130" as="geometry" />
        </mxCell>
        <mxCell id="mF9iUp9sDzbTyn-Hj18g-17" value="" style="group;fontFamily=VK Sans Display;fontColor=#212121;" parent="1" vertex="1" connectable="0">
          <mxGeometry x="343.5" y="231" width="140" height="60" as="geometry" />
        </mxCell>
        <mxCell id="mF9iUp9sDzbTyn-Hj18g-18" value="&lt;font&gt;Node 1&lt;/font&gt;" style="rounded=1;whiteSpace=wrap;html=1;fontFamily=VK Sans Display;strokeColor=#7C8A9A;arcsize=12;fillColor=#F6F7F9;spacing=0;spacingTop=12;spacingBottom=12;arcSize=12;absoluteArcSize=1;strokeWidth=1;fontColor=#212121;" parent="mF9iUp9sDzbTyn-Hj18g-17" vertex="1">
          <mxGeometry width="120" height="40" as="geometry" />
        </mxCell>
        <mxCell id="mF9iUp9sDzbTyn-Hj18g-19" value="&lt;font&gt;Node 1&lt;/font&gt;" style="rounded=1;whiteSpace=wrap;html=1;fontFamily=VK Sans Display;strokeColor=#7C8A9A;arcsize=12;fillColor=#F6F7F9;spacing=0;spacingTop=12;spacingBottom=12;arcSize=12;absoluteArcSize=1;strokeWidth=1;fontColor=#212121;" parent="mF9iUp9sDzbTyn-Hj18g-17" vertex="1">
          <mxGeometry x="10" y="10" width="120" height="40" as="geometry" />
        </mxCell>
        <mxCell id="mF9iUp9sDzbTyn-Hj18g-20" value="&lt;font&gt;Вычислительный узел&lt;/font&gt;" style="rounded=1;whiteSpace=wrap;html=1;fontFamily=VK Sans Display;strokeColor=#7C8A9A;arcsize=12;fillColor=#F6F7F9;spacing=0;spacingTop=12;spacingBottom=12;arcSize=12;absoluteArcSize=1;strokeWidth=1;fontColor=#212121;" parent="mF9iUp9sDzbTyn-Hj18g-17" vertex="1">
          <mxGeometry x="20" y="20" width="120" height="40" as="geometry" />
        </mxCell>
        <mxCell id="mF9iUp9sDzbTyn-Hj18g-21" value="Агрегат узла 4" style="rounded=1;whiteSpace=wrap;html=1;fontFamily=VK Sans Display;strokeColor=#E3E8F2;arcSize=12;fillColor=#FFF;spacing=12;verticalAlign=top;spacingTop=0;strokeWidth=4;spacingLeft=0;spacingBottom=0;fontStyle=1;absoluteArcSize=1;fontColor=#212121;" parent="1" vertex="1">
          <mxGeometry x="328.5" y="330" width="170" height="130" as="geometry" />
        </mxCell>
        <mxCell id="mF9iUp9sDzbTyn-Hj18g-22" value="" style="group;fontFamily=VK Sans Display;fontColor=#212121;" parent="1" vertex="1" connectable="0">
          <mxGeometry x="343.5" y="376" width="140" height="60" as="geometry" />
        </mxCell>
        <mxCell id="mF9iUp9sDzbTyn-Hj18g-23" value="&lt;font&gt;Node 1&lt;/font&gt;" style="rounded=1;whiteSpace=wrap;html=1;fontFamily=VK Sans Display;strokeColor=#7C8A9A;arcsize=12;fillColor=#F6F7F9;spacing=0;spacingTop=12;spacingBottom=12;arcSize=12;absoluteArcSize=1;strokeWidth=1;fontColor=#212121;" parent="mF9iUp9sDzbTyn-Hj18g-22" vertex="1">
          <mxGeometry width="120" height="40" as="geometry" />
        </mxCell>
        <mxCell id="mF9iUp9sDzbTyn-Hj18g-24" value="&lt;font&gt;Node 1&lt;/font&gt;" style="rounded=1;whiteSpace=wrap;html=1;fontFamily=VK Sans Display;strokeColor=#7C8A9A;arcsize=12;fillColor=#F6F7F9;spacing=0;spacingTop=12;spacingBottom=12;arcSize=12;absoluteArcSize=1;strokeWidth=1;fontColor=#212121;" parent="mF9iUp9sDzbTyn-Hj18g-22" vertex="1">
          <mxGeometry x="10" y="10" width="120" height="40" as="geometry" />
        </mxCell>
        <mxCell id="mF9iUp9sDzbTyn-Hj18g-25" value="&lt;font&gt;Вычислительный узел&lt;/font&gt;" style="rounded=1;whiteSpace=wrap;html=1;fontFamily=VK Sans Display;strokeColor=#7C8A9A;arcsize=12;fillColor=#F6F7F9;spacing=0;spacingTop=12;spacingBottom=12;arcSize=12;absoluteArcSize=1;strokeWidth=1;fontColor=#212121;" parent="mF9iUp9sDzbTyn-Hj18g-22" vertex="1">
          <mxGeometry x="20" y="20" width="120" height="40" as="geometry" />
        </mxCell>
        <mxCell id="mF9iUp9sDzbTyn-Hj18g-26" value="Зона доступности AZ3" style="rounded=1;whiteSpace=wrap;html=1;strokeColor=#7C8A9A;strokeWidth=1;fontColor=#212121;fillColor=none;dashed=1;fontFamily=VK Sans Display;verticalAlign=top;spacing=10;fontStyle=1;arcSize=12;absoluteArcSize=1;" parent="1" vertex="1">
          <mxGeometry x="548" y="100" width="231" height="400" as="geometry" />
        </mxCell>
        <mxCell id="mF9iUp9sDzbTyn-Hj18g-27" value="Агрегат узла AZ3" style="rounded=1;whiteSpace=wrap;html=1;fontFamily=VK Sans Display;strokeColor=none;arcSize=12;fillColor=#F6F7F9;spacing=10;verticalAlign=top;spacingTop=0;spacingLeft=0;spacingBottom=0;fontStyle=1;arcSize=12;absoluteArcSize=1;fontColor=#212121;" parent="1" vertex="1">
          <mxGeometry x="567" y="140" width="192" height="340" as="geometry" />
        </mxCell>
        <mxCell id="mF9iUp9sDzbTyn-Hj18g-28" value="Агрегат узла 5" style="rounded=1;whiteSpace=wrap;html=1;fontFamily=VK Sans Display;strokeColor=#E3E8F2;arcSize=12;fillColor=#FFF;spacing=12;verticalAlign=top;spacingTop=0;strokeWidth=4;spacingLeft=0;spacingBottom=0;fontStyle=1;absoluteArcSize=1;fontColor=#212121;" parent="1" vertex="1">
          <mxGeometry x="578.5" y="185" width="170" height="130" as="geometry" />
        </mxCell>
        <mxCell id="mF9iUp9sDzbTyn-Hj18g-29" value="" style="group;fontFamily=VK Sans Display;fontColor=#212121;" parent="1" vertex="1" connectable="0">
          <mxGeometry x="593.5" y="231" width="140" height="60" as="geometry" />
        </mxCell>
        <mxCell id="mF9iUp9sDzbTyn-Hj18g-30" value="&lt;font&gt;Node 1&lt;/font&gt;" style="rounded=1;whiteSpace=wrap;html=1;fontFamily=VK Sans Display;strokeColor=#7C8A9A;arcsize=12;fillColor=#F6F7F9;spacing=0;spacingTop=12;spacingBottom=12;arcSize=12;absoluteArcSize=1;strokeWidth=1;fontColor=#212121;" parent="mF9iUp9sDzbTyn-Hj18g-29" vertex="1">
          <mxGeometry width="120" height="40" as="geometry" />
        </mxCell>
        <mxCell id="mF9iUp9sDzbTyn-Hj18g-31" value="&lt;font&gt;Node 1&lt;/font&gt;" style="rounded=1;whiteSpace=wrap;html=1;fontFamily=VK Sans Display;strokeColor=#7C8A9A;arcsize=12;fillColor=#F6F7F9;spacing=0;spacingTop=12;spacingBottom=12;arcSize=12;absoluteArcSize=1;strokeWidth=1;fontColor=#212121;" parent="mF9iUp9sDzbTyn-Hj18g-29" vertex="1">
          <mxGeometry x="10" y="10" width="120" height="40" as="geometry" />
        </mxCell>
        <mxCell id="mF9iUp9sDzbTyn-Hj18g-32" value="&lt;font&gt;Вычислительный узел&lt;/font&gt;" style="rounded=1;whiteSpace=wrap;html=1;fontFamily=VK Sans Display;strokeColor=#7C8A9A;arcsize=12;fillColor=#F6F7F9;spacing=0;spacingTop=12;spacingBottom=12;arcSize=12;absoluteArcSize=1;strokeWidth=1;fontColor=#212121;" parent="mF9iUp9sDzbTyn-Hj18g-29" vertex="1">
          <mxGeometry x="20" y="20" width="120" height="40" as="geometry" />
        </mxCell>
        <mxCell id="mF9iUp9sDzbTyn-Hj18g-33" value="Агрегат узла 6" style="rounded=1;whiteSpace=wrap;html=1;fontFamily=VK Sans Display;strokeColor=#E3E8F2;arcSize=12;fillColor=#FFF;spacing=12;verticalAlign=top;spacingTop=0;strokeWidth=4;spacingLeft=0;spacingBottom=0;fontStyle=1;absoluteArcSize=1;fontColor=#212121;" parent="1" vertex="1">
          <mxGeometry x="578.5" y="330" width="170" height="130" as="geometry" />
        </mxCell>
        <mxCell id="mF9iUp9sDzbTyn-Hj18g-34" value="" style="group;fontFamily=VK Sans Display;fontColor=#212121;" parent="1" vertex="1" connectable="0">
          <mxGeometry x="593.5" y="376" width="140" height="60" as="geometry" />
        </mxCell>
        <mxCell id="mF9iUp9sDzbTyn-Hj18g-35" value="&lt;font&gt;Node 1&lt;/font&gt;" style="rounded=1;whiteSpace=wrap;html=1;fontFamily=VK Sans Display;strokeColor=#7C8A9A;arcsize=12;fillColor=#F6F7F9;spacing=0;spacingTop=12;spacingBottom=12;arcSize=12;absoluteArcSize=1;strokeWidth=1;fontColor=#212121;" parent="mF9iUp9sDzbTyn-Hj18g-34" vertex="1">
          <mxGeometry width="120" height="40" as="geometry" />
        </mxCell>
        <mxCell id="mF9iUp9sDzbTyn-Hj18g-36" value="&lt;font&gt;Node 1&lt;/font&gt;" style="rounded=1;whiteSpace=wrap;html=1;fontFamily=VK Sans Display;strokeColor=#7C8A9A;arcsize=12;fillColor=#F6F7F9;spacing=0;spacingTop=12;spacingBottom=12;arcSize=12;absoluteArcSize=1;strokeWidth=1;fontColor=#212121;" parent="mF9iUp9sDzbTyn-Hj18g-34" vertex="1">
          <mxGeometry x="10" y="10" width="120" height="40" as="geometry" />
        </mxCell>
        <mxCell id="mF9iUp9sDzbTyn-Hj18g-37" value="&lt;font&gt;Вычислительный узел&lt;/font&gt;" style="rounded=1;whiteSpace=wrap;html=1;fontFamily=VK Sans Display;strokeColor=#7C8A9A;arcsize=12;fillColor=#F6F7F9;spacing=0;spacingTop=12;spacingBottom=12;arcSize=12;absoluteArcSize=1;strokeWidth=1;fontColor=#212121;" parent="mF9iUp9sDzbTyn-Hj18g-34" vertex="1">
          <mxGeometry x="20" y="20" width="120" height="40" as="geometry" />
        </mxCell>
        <mxCell id="mF9iUp9sDzbTyn-Hj18g-38" value="&lt;b style=&quot;font-size: 14px;&quot;&gt;Регион&lt;/b&gt;" style="text;html=1;strokeColor=none;fillColor=none;align=center;verticalAlign=middle;whiteSpace=wrap;rounded=0;fontSize=14;fontFamily=VK Sans Display;fontColor=#212121;" parent="1" vertex="1">
          <mxGeometry x="39" y="55" width="750" height="30" as="geometry" />
        </mxCell>
      </root>
    </mxGraphModel>
  </diagram>
  <diagram id="tR75Z75XghJk2J81s2se" name="zone_region_1_3">
    <mxGraphModel dx="780" dy="496" grid="1" gridSize="10" guides="1" tooltips="1" connect="1" arrows="1" fold="1" page="1" pageScale="1" pageWidth="827" pageHeight="1169" math="0" shadow="0">
      <root>
        <mxCell id="0" />
        <mxCell id="1" parent="0" />
        <mxCell id="mt_i1_PrnDl9m66u1w-Z-1" value="" style="rounded=1;whiteSpace=wrap;html=1;fontFamily=VK Sans Display;strokeColor=none;arcsize=12;fillColor=#FFFFFF;spacing=0;spacingTop=12;spacingBottom=12;arcSize=12;absoluteArcSize=1;fontSize=14;fontColor=#212121;" parent="1" vertex="1">
          <mxGeometry x="30" y="30" width="580" height="214" as="geometry" />
        </mxCell>
        <mxCell id="mt_i1_PrnDl9m66u1w-Z-2" value="&lt;font&gt;Зона доступности AZ1&lt;/font&gt;" style="rounded=1;whiteSpace=wrap;html=1;fontFamily=VK Sans Display;strokeColor=none;arcsize=12;fillColor=#F6F7F9;spacing=10;verticalAlign=top;spacingTop=0;spacingLeft=0;spacingRight=0;fontStyle=1;arcSize=12;absoluteArcSize=1;fontColor=#212121;" parent="1" vertex="1">
          <mxGeometry x="40" y="40" width="160" height="192" as="geometry" />
        </mxCell>
        <mxCell id="mt_i1_PrnDl9m66u1w-Z-3" value="&lt;font&gt;Активный инстанс приложения&lt;/font&gt;" style="rounded=1;whiteSpace=wrap;html=1;fontFamily=VK Sans Display;strokeColor=none;arcsize=12;fillColor=#FFFFFF;spacing=0;spacingTop=12;spacingBottom=12;arcSize=12;absoluteArcSize=1;fontColor=#212121;" parent="1" vertex="1">
          <mxGeometry x="62.5" y="88" width="115" height="50" as="geometry" />
        </mxCell>
        <mxCell id="mt_i1_PrnDl9m66u1w-Z-4" value="&lt;font&gt;Ansible&lt;/font&gt;" style="rounded=1;whiteSpace=wrap;html=1;fontFamily=VK Sans Display;strokeColor=none;arcsize=12;fillColor=#FFF;spacing=0;spacingTop=12;spacingBottom=12;arcSize=12;absoluteArcSize=1;fontColor=#212121;" parent="1" vertex="1">
          <mxGeometry x="280" y="98" width="100" height="30" as="geometry" />
        </mxCell>
        <mxCell id="mt_i1_PrnDl9m66u1w-Z-5" value="Зона доступности AZ2" style="rounded=1;whiteSpace=wrap;html=1;fontFamily=VK Sans Display;strokeColor=none;arcsize=12;fillColor=#F6F7F9;spacing=10;verticalAlign=top;spacingTop=0;spacingLeft=0;spacingRight=0;fontStyle=1;arcSize=12;absoluteArcSize=1;fontColor=#212121;" parent="1" vertex="1">
          <mxGeometry x="240" y="40" width="160" height="192" as="geometry" />
        </mxCell>
        <mxCell id="mt_i1_PrnDl9m66u1w-Z-6" value="Зона доступности AZ3" style="rounded=1;whiteSpace=wrap;html=1;fontFamily=VK Sans Display;strokeColor=none;arcsize=12;fillColor=#F6F7F9;spacing=10;verticalAlign=top;spacingTop=0;spacingLeft=0;spacingRight=0;fontStyle=1;arcSize=12;absoluteArcSize=1;fontColor=#212121;" parent="1" vertex="1">
          <mxGeometry x="440" y="40" width="160" height="192" as="geometry" />
        </mxCell>
        <mxCell id="mt_i1_PrnDl9m66u1w-Z-7" value="&lt;font&gt;Резервный &lt;br&gt;инстанс приложения&lt;/font&gt;" style="rounded=1;whiteSpace=wrap;html=1;fontFamily=VK Sans Display;strokeColor=none;arcsize=12;fillColor=#FFFFFF;spacing=0;spacingTop=12;spacingBottom=12;arcSize=12;absoluteArcSize=1;fontColor=#212121;" parent="1" vertex="1">
          <mxGeometry x="262.5" y="88" width="115" height="50" as="geometry" />
        </mxCell>
        <mxCell id="mt_i1_PrnDl9m66u1w-Z-8" value="&lt;font&gt;&amp;nbsp;Распределённое приложение (кворум)&lt;/font&gt;" style="rounded=1;whiteSpace=wrap;html=1;fontFamily=VK Sans Display;strokeColor=none;arcsize=12;fillColor=#FFFFFF;spacing=0;spacingTop=12;spacingBottom=12;arcSize=12;absoluteArcSize=1;fontColor=#212121;" parent="1" vertex="1">
          <mxGeometry x="62.5" y="158" width="115" height="50" as="geometry" />
        </mxCell>
        <mxCell id="mt_i1_PrnDl9m66u1w-Z-9" value="&amp;nbsp;Распределённое приложение (кворум)" style="rounded=1;whiteSpace=wrap;html=1;fontFamily=VK Sans Display;strokeColor=none;arcsize=12;fillColor=#FFFFFF;spacing=0;spacingTop=12;spacingBottom=12;arcSize=12;absoluteArcSize=1;fontColor=#212121;" parent="1" vertex="1">
          <mxGeometry x="262.5" y="158" width="115" height="50" as="geometry" />
        </mxCell>
        <mxCell id="mt_i1_PrnDl9m66u1w-Z-10" value="&amp;nbsp;Распределённое приложение (кворум)" style="rounded=1;whiteSpace=wrap;html=1;fontFamily=VK Sans Display;strokeColor=none;arcsize=12;fillColor=#FFFFFF;spacing=0;spacingTop=12;spacingBottom=12;arcSize=12;absoluteArcSize=1;fontColor=#212121;" parent="1" vertex="1">
          <mxGeometry x="462.5" y="158" width="115" height="50" as="geometry" />
        </mxCell>
        <mxCell id="mt_i1_PrnDl9m66u1w-Z-11" style="edgeStyle=orthogonalEdgeStyle;rounded=1;orthogonalLoop=1;jettySize=auto;html=1;strokeColor=#7C8A9A;strokeWidth=2;endArrow=oval;endFill=1;targetPerimeterSpacing=0;entryX=0;entryY=0.5;entryDx=0;entryDy=0;exitX=1;exitY=0.5;exitDx=0;exitDy=0;startArrow=oval;startFill=1;fontFamily=VK Sans Display;fontColor=#212121;" parent="1" source="mt_i1_PrnDl9m66u1w-Z-3" target="mt_i1_PrnDl9m66u1w-Z-7" edge="1">
          <mxGeometry relative="1" as="geometry">
            <mxPoint x="400" y="538" as="targetPoint" />
            <mxPoint x="230" y="232" as="sourcePoint" />
          </mxGeometry>
        </mxCell>
        <mxCell id="mt_i1_PrnDl9m66u1w-Z-12" style="edgeStyle=orthogonalEdgeStyle;rounded=1;orthogonalLoop=1;jettySize=auto;html=1;strokeColor=#7C8A9A;strokeWidth=2;endArrow=oval;endFill=1;exitX=1;exitY=0.5;exitDx=0;exitDy=0;entryX=0;entryY=0.5;entryDx=0;entryDy=0;startArrow=oval;startFill=1;fontFamily=VK Sans Display;fontColor=#212121;" parent="1" source="mt_i1_PrnDl9m66u1w-Z-8" target="mt_i1_PrnDl9m66u1w-Z-9" edge="1">
          <mxGeometry relative="1" as="geometry">
            <mxPoint x="280" y="133" as="targetPoint" />
            <mxPoint x="180" y="133" as="sourcePoint" />
          </mxGeometry>
        </mxCell>
        <mxCell id="mt_i1_PrnDl9m66u1w-Z-13" style="edgeStyle=orthogonalEdgeStyle;rounded=1;orthogonalLoop=1;jettySize=auto;html=1;strokeColor=#7C8A9A;strokeWidth=2;endArrow=oval;endFill=1;startArrow=oval;startFill=1;fontFamily=VK Sans Display;fontColor=#212121;" parent="1" source="mt_i1_PrnDl9m66u1w-Z-9" target="mt_i1_PrnDl9m66u1w-Z-10" edge="1">
          <mxGeometry relative="1" as="geometry">
            <mxPoint x="290" y="143" as="targetPoint" />
            <mxPoint x="190" y="143" as="sourcePoint" />
          </mxGeometry>
        </mxCell>
      </root>
    </mxGraphModel>
  </diagram>
  <diagram id="83wSY93Mm3hhmJj2nBZE" name="region_msk">
    <mxGraphModel dx="1434" dy="870" grid="1" gridSize="10" guides="1" tooltips="1" connect="1" arrows="1" fold="1" page="1" pageScale="1" pageWidth="827" pageHeight="1169" math="0" shadow="0">
      <root>
        <mxCell id="0" />
        <mxCell id="1" parent="0" />
        <mxCell id="hGpx4mJ4Er2OBaEFqo6u-1" value="" style="rounded=1;whiteSpace=wrap;html=1;fontFamily=VK Sans Display;strokeColor=none;arcsize=12;fillColor=#FFFFFF;spacing=0;spacingTop=12;spacingBottom=12;arcSize=12;absoluteArcSize=1;fontSize=14;fontColor=#212121;" vertex="1" parent="1">
          <mxGeometry x="35" y="30" width="432" height="330" as="geometry" />
        </mxCell>
        <mxCell id="hGpx4mJ4Er2OBaEFqo6u-2" value="" style="rounded=1;whiteSpace=wrap;html=1;strokeColor=#7C8A9A;strokeWidth=1;fontColor=#212121;fillColor=none;dashed=1;arcSize=12;absoluteArcSize=1;fontFamily=VK Sans Display;" vertex="1" parent="1">
          <mxGeometry x="46" y="40" width="410" height="310" as="geometry" />
        </mxCell>
        <mxCell id="hGpx4mJ4Er2OBaEFqo6u-3" value="MSK-DC-1" style="rounded=1;whiteSpace=wrap;html=1;fontFamily=VK Sans Display;strokeColor=none;arcSize=12;fillColor=#F6F7F9;spacing=10;verticalAlign=top;spacingTop=0;spacingLeft=0;spacingBottom=0;fontStyle=1;arcSize=12;absoluteArcSize=1;fontColor=#212121;" vertex="1" parent="1">
          <mxGeometry x="60" y="85" width="180" height="249" as="geometry" />
        </mxCell>
        <mxCell id="hGpx4mJ4Er2OBaEFqo6u-4" value="Зона доступности AZ1" style="rounded=1;whiteSpace=wrap;html=1;fontFamily=VK Sans Display;strokeColor=#E3E8F2;arcSize=12;fillColor=#FFF;spacing=12;verticalAlign=top;spacingTop=0;strokeWidth=4;spacingLeft=0;spacingBottom=0;fontStyle=1;absoluteArcSize=1;fontColor=#212121;" vertex="1" parent="1">
          <mxGeometry x="71" y="176" width="160" height="136" as="geometry" />
        </mxCell>
        <mxCell id="hGpx4mJ4Er2OBaEFqo6u-5" value="Ceph" style="rounded=1;whiteSpace=wrap;html=1;fontFamily=VK Sans Display;strokeColor=none;arcsize=12;fillColor=#F6F7F9;spacing=0;spacingTop=12;spacingBottom=12;arcSize=12;absoluteArcSize=1;fontColor=#212121;" vertex="1" parent="1">
          <mxGeometry x="80" y="264" width="60" height="30" as="geometry" />
        </mxCell>
        <mxCell id="hGpx4mJ4Er2OBaEFqo6u-6" value="Агрегаты вычислительных узлов" style="rounded=1;whiteSpace=wrap;html=1;fontFamily=VK Sans Display;strokeColor=none;arcsize=12;fillColor=#F6F7F9;spacing=0;spacingTop=12;spacingBottom=12;arcSize=12;absoluteArcSize=1;fontColor=#212121;" vertex="1" parent="1">
          <mxGeometry x="80" y="221" width="140" height="30" as="geometry" />
        </mxCell>
        <mxCell id="hGpx4mJ4Er2OBaEFqo6u-7" value="Узлы управления" style="rounded=1;whiteSpace=wrap;html=1;fontFamily=VK Sans Display;strokeColor=none;arcsize=12;fillColor=#FFFFFF;spacing=0;spacingTop=12;spacingBottom=12;arcSize=12;absoluteArcSize=1;fontColor=#212121;" vertex="1" parent="1">
          <mxGeometry x="70" y="126" width="160" height="30" as="geometry" />
        </mxCell>
        <mxCell id="hGpx4mJ4Er2OBaEFqo6u-8" value="High-IOPS" style="rounded=1;whiteSpace=wrap;html=1;fontFamily=VK Sans Display;strokeColor=none;arcsize=12;fillColor=#F6F7F9;spacing=0;spacingTop=12;spacingBottom=12;arcSize=12;absoluteArcSize=1;fontColor=#212121;" vertex="1" parent="1">
          <mxGeometry x="160" y="264" width="60" height="30" as="geometry" />
        </mxCell>
        <mxCell id="hGpx4mJ4Er2OBaEFqo6u-9" value="MSK-DC-2" style="rounded=1;whiteSpace=wrap;html=1;fontFamily=VK Sans Display;strokeColor=none;arcSize=12;fillColor=#F6F7F9;spacing=10;verticalAlign=top;spacingTop=0;spacingLeft=0;spacingBottom=0;fontStyle=1;arcSize=12;absoluteArcSize=1;fontColor=#212121;" vertex="1" parent="1">
          <mxGeometry x="260" y="85" width="180" height="249" as="geometry" />
        </mxCell>
        <mxCell id="hGpx4mJ4Er2OBaEFqo6u-10" value="Зона доступности AZ2" style="rounded=1;whiteSpace=wrap;html=1;fontFamily=VK Sans Display;strokeColor=#E3E8F2;arcSize=12;fillColor=#FFF;spacing=12;verticalAlign=top;spacingTop=0;strokeWidth=4;spacingLeft=0;spacingBottom=0;fontStyle=1;absoluteArcSize=1;fontColor=#212121;" vertex="1" parent="1">
          <mxGeometry x="271" y="176" width="160" height="136" as="geometry" />
        </mxCell>
        <mxCell id="hGpx4mJ4Er2OBaEFqo6u-11" value="Ceph" style="rounded=1;whiteSpace=wrap;html=1;fontFamily=VK Sans Display;strokeColor=none;arcsize=12;fillColor=#F6F7F9;spacing=0;spacingTop=12;spacingBottom=12;arcSize=12;absoluteArcSize=1;fontColor=#212121;" vertex="1" parent="1">
          <mxGeometry x="280" y="264" width="60" height="30" as="geometry" />
        </mxCell>
        <mxCell id="hGpx4mJ4Er2OBaEFqo6u-12" value="Агрегаты вычислительных узлов" style="rounded=1;whiteSpace=wrap;html=1;fontFamily=VK Sans Display;strokeColor=none;arcsize=12;fillColor=#F6F7F9;spacing=0;spacingTop=12;spacingBottom=12;arcSize=12;absoluteArcSize=1;fontColor=#212121;" vertex="1" parent="1">
          <mxGeometry x="280" y="219" width="140" height="30" as="geometry" />
        </mxCell>
        <mxCell id="hGpx4mJ4Er2OBaEFqo6u-13" value="High-IOPS" style="rounded=1;whiteSpace=wrap;html=1;fontFamily=VK Sans Display;strokeColor=none;arcsize=12;fillColor=#F6F7F9;spacing=0;spacingTop=12;spacingBottom=12;arcSize=12;absoluteArcSize=1;fontColor=#212121;" vertex="1" parent="1">
          <mxGeometry x="360" y="264" width="60" height="30" as="geometry" />
        </mxCell>
        <mxCell id="hGpx4mJ4Er2OBaEFqo6u-14" value="&lt;b&gt;Регион: MSK&lt;/b&gt;" style="text;html=1;strokeColor=none;fillColor=none;align=center;verticalAlign=middle;whiteSpace=wrap;rounded=0;fontSize=12;fontFamily=VK Sans Display;fontColor=#212121;" vertex="1" parent="1">
          <mxGeometry x="60" y="50" width="380" height="30" as="geometry" />
        </mxCell>
      </root>
    </mxGraphModel>
  </diagram>
  <diagram id="nYXlTp30ollSce-Gqlua" name="region_msk_1_3">
    <mxGraphModel dx="1434" dy="870" grid="1" gridSize="10" guides="1" tooltips="1" connect="1" arrows="1" fold="1" page="1" pageScale="1" pageWidth="827" pageHeight="1169" math="0" shadow="0">
      <root>
        <mxCell id="0" />
        <mxCell id="1" parent="0" />
        <mxCell id="N8EDUu3tnTRc_zw5R6nR-1" value="" style="rounded=1;whiteSpace=wrap;html=1;fontFamily=VK Sans Display;strokeColor=none;arcsize=12;fillColor=#FFFFFF;spacing=0;spacingTop=12;spacingBottom=12;arcSize=12;absoluteArcSize=1;fontSize=14;fontColor=#212121;" vertex="1" parent="1">
          <mxGeometry x="20" y="10" width="620" height="320" as="geometry" />
        </mxCell>
        <mxCell id="N8EDUu3tnTRc_zw5R6nR-2" value="" style="rounded=1;whiteSpace=wrap;html=1;strokeColor=#7C8A9A;strokeWidth=1;fontColor=#212121;fillColor=none;dashed=1;arcSize=12;absoluteArcSize=1;fontFamily=VK Sans Display;" vertex="1" parent="1">
          <mxGeometry x="30" y="20" width="600" height="300" as="geometry" />
        </mxCell>
        <mxCell id="N8EDUu3tnTRc_zw5R6nR-3" value="MSK-DC-1" style="rounded=1;whiteSpace=wrap;html=1;fontFamily=VK Sans Display;strokeColor=none;arcSize=12;fillColor=#F6F7F9;spacing=10;verticalAlign=top;spacingTop=0;spacingLeft=0;spacingBottom=0;fontStyle=1;arcSize=12;absoluteArcSize=1;fontColor=#212121;" vertex="1" parent="1">
          <mxGeometry x="41" y="68" width="180" height="229" as="geometry" />
        </mxCell>
        <mxCell id="N8EDUu3tnTRc_zw5R6nR-4" value="Зона доступности AZ1" style="rounded=1;whiteSpace=wrap;html=1;fontFamily=VK Sans Display;strokeColor=#E3E8F2;arcSize=12;fillColor=#FFF;spacing=12;verticalAlign=top;spacingTop=0;strokeWidth=4;spacingLeft=0;spacingBottom=0;fontStyle=1;absoluteArcSize=1;fontColor=#212121;" vertex="1" parent="1">
          <mxGeometry x="52" y="152" width="160" height="126" as="geometry" />
        </mxCell>
        <mxCell id="N8EDUu3tnTRc_zw5R6nR-5" value="Ceph" style="rounded=1;whiteSpace=wrap;html=1;fontFamily=VK Sans Display;strokeColor=none;arcsize=12;fillColor=#F6F7F9;spacing=0;spacingTop=12;spacingBottom=12;arcSize=12;absoluteArcSize=1;fontColor=#212121;" vertex="1" parent="1">
          <mxGeometry x="61" y="236" width="60" height="30" as="geometry" />
        </mxCell>
        <mxCell id="N8EDUu3tnTRc_zw5R6nR-6" value="Агрегаты вычислительных узлов" style="rounded=1;whiteSpace=wrap;html=1;fontFamily=VK Sans Display;strokeColor=none;arcsize=12;fillColor=#F6F7F9;spacing=0;spacingTop=12;spacingBottom=12;arcSize=12;absoluteArcSize=1;fontColor=#212121;" vertex="1" parent="1">
          <mxGeometry x="61" y="194" width="140" height="30" as="geometry" />
        </mxCell>
        <mxCell id="N8EDUu3tnTRc_zw5R6nR-7" value="High-IOPS" style="rounded=1;whiteSpace=wrap;html=1;fontFamily=VK Sans Display;strokeColor=none;arcsize=12;fillColor=#F6F7F9;spacing=0;spacingTop=12;spacingBottom=12;arcSize=12;absoluteArcSize=1;fontColor=#212121;" vertex="1" parent="1">
          <mxGeometry x="141" y="236" width="60" height="30" as="geometry" />
        </mxCell>
        <mxCell id="N8EDUu3tnTRc_zw5R6nR-8" value="MSK-DC-2" style="rounded=1;whiteSpace=wrap;html=1;fontFamily=VK Sans Display;strokeColor=none;arcSize=12;fillColor=#F6F7F9;spacing=10;verticalAlign=top;spacingTop=0;spacingLeft=0;spacingBottom=0;fontStyle=1;arcSize=12;absoluteArcSize=1;fontColor=#212121;" vertex="1" parent="1">
          <mxGeometry x="241" y="68" width="180" height="229" as="geometry" />
        </mxCell>
        <mxCell id="N8EDUu3tnTRc_zw5R6nR-9" value="Зона доступности AZ2" style="rounded=1;whiteSpace=wrap;html=1;fontFamily=VK Sans Display;strokeColor=#E3E8F2;arcSize=12;fillColor=#FFF;spacing=12;verticalAlign=top;spacingTop=0;strokeWidth=4;spacingLeft=0;spacingBottom=0;fontStyle=1;absoluteArcSize=1;fontColor=#212121;" vertex="1" parent="1">
          <mxGeometry x="252" y="154" width="160" height="125" as="geometry" />
        </mxCell>
        <mxCell id="N8EDUu3tnTRc_zw5R6nR-10" value="Ceph" style="rounded=1;whiteSpace=wrap;html=1;fontFamily=VK Sans Display;strokeColor=none;arcsize=12;fillColor=#F6F7F9;spacing=0;spacingTop=12;spacingBottom=12;arcSize=12;absoluteArcSize=1;fontColor=#212121;" vertex="1" parent="1">
          <mxGeometry x="261" y="235" width="60" height="30" as="geometry" />
        </mxCell>
        <mxCell id="N8EDUu3tnTRc_zw5R6nR-11" value="Агрегаты вычислительных узлов" style="rounded=1;whiteSpace=wrap;html=1;fontFamily=VK Sans Display;strokeColor=none;arcsize=12;fillColor=#F6F7F9;spacing=0;spacingTop=12;spacingBottom=12;arcSize=12;absoluteArcSize=1;fontColor=#212121;" vertex="1" parent="1">
          <mxGeometry x="261" y="194" width="140" height="30" as="geometry" />
        </mxCell>
        <mxCell id="N8EDUu3tnTRc_zw5R6nR-12" value="High-IOPS" style="rounded=1;whiteSpace=wrap;html=1;fontFamily=VK Sans Display;strokeColor=none;arcsize=12;fillColor=#F6F7F9;spacing=0;spacingTop=12;spacingBottom=12;arcSize=12;absoluteArcSize=1;fontColor=#212121;" vertex="1" parent="1">
          <mxGeometry x="341" y="235" width="60" height="30" as="geometry" />
        </mxCell>
        <mxCell id="N8EDUu3tnTRc_zw5R6nR-13" value="&lt;b&gt;Регион MSK&lt;/b&gt;" style="text;html=1;strokeColor=none;fillColor=none;align=center;verticalAlign=middle;whiteSpace=wrap;rounded=0;fontSize=12;fontFamily=VK Sans Display;fontColor=#212121;" vertex="1" parent="1">
          <mxGeometry x="41" y="30" width="579" height="30" as="geometry" />
        </mxCell>
        <mxCell id="N8EDUu3tnTRc_zw5R6nR-14" value="MSK-DC-3" style="rounded=1;whiteSpace=wrap;html=1;fontFamily=VK Sans Display;strokeColor=none;arcSize=12;fillColor=#F6F7F9;spacing=10;verticalAlign=top;spacingTop=0;spacingLeft=0;spacingBottom=0;fontStyle=1;arcSize=12;absoluteArcSize=1;fontColor=#212121;" vertex="1" parent="1">
          <mxGeometry x="440" y="68" width="180" height="229" as="geometry" />
        </mxCell>
        <mxCell id="N8EDUu3tnTRc_zw5R6nR-15" value="Зона доступности AZ3" style="rounded=1;whiteSpace=wrap;html=1;fontFamily=VK Sans Display;strokeColor=#E3E8F2;arcSize=12;fillColor=#FFF;spacing=12;verticalAlign=top;spacingTop=0;strokeWidth=4;spacingLeft=0;spacingBottom=0;fontStyle=1;absoluteArcSize=1;fontColor=#212121;" vertex="1" parent="1">
          <mxGeometry x="451" y="154" width="160" height="124" as="geometry" />
        </mxCell>
        <mxCell id="N8EDUu3tnTRc_zw5R6nR-16" value="Ceph" style="rounded=1;whiteSpace=wrap;html=1;fontFamily=VK Sans Display;strokeColor=none;arcsize=12;fillColor=#F6F7F9;spacing=0;spacingTop=12;spacingBottom=12;arcSize=12;absoluteArcSize=1;fontColor=#212121;" vertex="1" parent="1">
          <mxGeometry x="460" y="234" width="60" height="30" as="geometry" />
        </mxCell>
        <mxCell id="N8EDUu3tnTRc_zw5R6nR-17" value="Агрегаты вычислительных узлов" style="rounded=1;whiteSpace=wrap;html=1;fontFamily=VK Sans Display;strokeColor=none;arcsize=12;fillColor=#F6F7F9;spacing=0;spacingTop=12;spacingBottom=12;arcSize=12;absoluteArcSize=1;fontColor=#212121;" vertex="1" parent="1">
          <mxGeometry x="460" y="194" width="140" height="30" as="geometry" />
        </mxCell>
        <mxCell id="N8EDUu3tnTRc_zw5R6nR-18" value="High-IOPS" style="rounded=1;whiteSpace=wrap;html=1;fontFamily=VK Sans Display;strokeColor=none;arcsize=12;fillColor=#F6F7F9;spacing=0;spacingTop=12;spacingBottom=12;arcSize=12;absoluteArcSize=1;fontColor=#212121;" vertex="1" parent="1">
          <mxGeometry x="540" y="234" width="60" height="30" as="geometry" />
        </mxCell>
        <mxCell id="N8EDUu3tnTRc_zw5R6nR-19" value="Узлы управления" style="rounded=1;whiteSpace=wrap;html=1;fontFamily=VK Sans Display;strokeColor=none;arcsize=12;fillColor=#E3EAFF;spacing=0;spacingTop=12;spacingBottom=12;arcSize=12;absoluteArcSize=1;labelBackgroundColor=none;fontColor=#212121;" vertex="1" parent="1">
          <mxGeometry x="51" y="110" width="559" height="30" as="geometry" />
        </mxCell>
      </root>
    </mxGraphModel>
  </diagram>
</mxfile>
